<?xml version="1.0" encoding="utf-8"?>

<svg version="1.1" id="Layer_1" xmlns="http://www.w3.org/2000/svg" xmlns:xlink="http://www.w3.org/1999/xlink" x="0px" y="0px"
	 viewBox="0 0 512 512" style="enable-background:new 0 0 512 512;" xml:space="preserve">
<style type="text/css">
	.st0{fill:#1E3050;}
	.st1{fill:#A5ACB9;}
</style>
<g>
	<g>
		<g>
			<path class="st0" d="M403.4,248.4L272.2,381.2c-19.7,19.9-53.6,6-53.6-22V290H87c-15.9,0-28.8-12.9-28.8-28.8v-69.6
				c0-15.9,12.9-28.8,28.8-28.8h131.6V93.6c0-28,33.9-41.9,53.6-22l131.2,132.8C415.4,216.6,415.4,236.2,403.4,248.4z"/>
			<path class="st1" d="M571.8,93.9v265c0,50.7-41.1,91.9-91.9,91.9h-71.4c-17.2,0-31.1-13.9-31.1-31.1l0,0
				c0-17.2,13.9-31.1,31.1-31.1h62.3c21.4,0,38.8-17.4,38.8-38.8V103c0-21.4-17.4-38.8-38.8-38.8h-62.3c-17.2,0-31.1-13.9-31.1-31.1
				l0,0c0-17.2,13.9-31.1,31.1-31.1h71.4C530.7,2,571.8,43.2,571.8,93.9z"/>
		</g>
	</g>
</g>
</svg>
