<?xml version="1.0" encoding="utf-8"?>
<!-- Generator: Adobe Illustrator 24.3.0, SVG Export Plug-In . SVG Version: 6.00 Build 0)  -->
<svg version="1.1" id="Layer_1" xmlns="http://www.w3.org/2000/svg" xmlns:xlink="http://www.w3.org/1999/xlink" x="0px" y="0px"
	 viewBox="0 0 512 512" style="enable-background:new 0 0 512 512;" xml:space="preserve">
<style type="text/css">
	.st0{fill:#1E3050;}
	.st1{fill:#A5ACB9;}
</style>
<g>
	
		<image style="overflow:visible;opacity:0.3;" width="522" height="457" xlink:href="490B6D0D.png"  transform="matrix(1 0 0 1 -3.4016 29.5984)">
	</image>
	<g>
		<g>
			<path class="st0" d="M344.4,278L213.2,410.8c-19.7,19.9-53.6,6-53.6-22v-69.2H28c-15.9,0-28.8-12.9-28.8-28.8v-69.6
				c0-15.9,12.9-28.8,28.8-28.8h131.6v-69.2c0-28,33.9-41.9,53.6-22L344.4,234C356.4,246.2,356.4,265.8,344.4,278z"/>
			<path class="st1" d="M512.8,123.5v265c0,50.7-41.1,91.9-91.9,91.9h-71.4c-17.2,0-31.1-13.9-31.1-31.1v0
				c0-17.2,13.9-31.1,31.1-31.1h62.3c21.4,0,38.8-17.4,38.8-38.8V132.6c0-21.4-17.4-38.8-38.8-38.8h-62.3
				c-17.2,0-31.1-13.9-31.1-31.1v0c0-17.2,13.9-31.1,31.1-31.1h71.4C471.7,31.6,512.8,72.8,512.8,123.5z"/>
		</g>
	</g>
</g>
</svg>
