<?xml version="1.0" encoding="utf-8"?>
<!-- Generator: Adobe Illustrator 24.3.0, SVG Export Plug-In . SVG Version: 6.00 Build 0)  -->
<svg version="1.1" id="Layer_1" xmlns="http://www.w3.org/2000/svg" xmlns:xlink="http://www.w3.org/1999/xlink" x="0px" y="0px"
	 viewBox="0 0 448 512" style="enable-background:new 0 0 448 512;" xml:space="preserve">
<style type="text/css">
	.st0{fill:#FFFFFF;}
</style>
<g>
	
		<image style="overflow:visible;opacity:0.6;" width="478" height="478" xlink:href="B66AF1F5.png"  transform="matrix(1 0 0 1 -10 22)">
	</image>
	<g>
		<g>
			<path d="M387,480H61c-33.7,0-61-27.3-61-61V93c0-33.7,27.3-61,61-61h326c33.7,0,61,27.3,61,61v326C448,452.7,420.7,480,387,480z"
				/>
			<path class="st0" d="M376.8,224.6c-30,0.1-59.3-9.3-83.7-26.8v121.9c0,61.2-49.7,110.9-110.9,110.9S71.2,380.9,71.2,319.6
				s49.7-110.9,110.9-110.9c5.1,0,10.2,0.4,15.2,1.1v61.3c-26.8-8.4-55.4,6.5-63.8,33.3c-8.4,26.8,6.5,55.4,33.3,63.8
				c26.8,8.4,55.4-6.5,63.8-33.3c1.6-4.9,2.3-10.1,2.3-15.2V81.4h60c0,5.1,0.4,10.1,1.3,15.1l0,0c4.2,22.5,17.5,42.3,36.8,54.7
				c13.6,9,29.4,13.7,45.7,13.7V224.6z"/>
		</g>
	</g>
</g>
</svg>
