<?xml version="1.0" encoding="utf-8"?>
<!-- Generator: Adobe Illustrator 24.3.0, SVG Export Plug-In . SVG Version: 6.00 Build 0)  -->
<svg version="1.1" id="Layer_1" xmlns="http://www.w3.org/2000/svg" xmlns:xlink="http://www.w3.org/1999/xlink" x="0px" y="0px"
	 viewBox="0 0 448 512" style="enable-background:new 0 0 448 512;" xml:space="preserve">
<style type="text/css">
	.st0{fill:#FFFFFF;}
</style>
<g>
	<g>
		<g>
			<path d="M392,463H66c-33.7,0-61-27.3-61-61V76c0-33.7,27.3-61,61-61h326c33.7,0,61,27.3,61,61v326C453,435.7,425.7,463,392,463z"
				/>
			<path class="st0" d="M381.8,207.6c-30,0.1-59.3-9.3-83.7-26.8v121.9c0,61.2-49.7,110.9-110.9,110.9s-111-49.7-111-111
				s49.7-110.9,110.9-110.9c5.1,0,10.2,0.4,15.2,1.1v61.3c-26.8-8.4-55.4,6.5-63.8,33.3s6.5,55.4,33.3,63.8s55.4-6.5,63.8-33.3
				c1.6-4.9,2.3-10.1,2.3-15.2V64.4h60c0,5.1,0.4,10.1,1.3,15.1l0,0c4.2,22.5,17.5,42.3,36.8,54.7c13.6,9,29.4,13.7,45.7,13.7
				L381.8,207.6L381.8,207.6z"/>
		</g>
	</g>
</g>
</svg>
