<?xml version="1.0" encoding="utf-8"?>
<!-- Generator: Adobe Illustrator 24.3.0, SVG Export Plug-In . SVG Version: 6.00 Build 0)  -->
<svg version="1.1" id="Layer_1" xmlns="http://www.w3.org/2000/svg" xmlns:xlink="http://www.w3.org/1999/xlink" x="0px" y="0px"
	 viewBox="0 0 4000 4000" style="enable-background:new 0 0 4000 4000;" xml:space="preserve">
<style type="text/css">
	.st0{fill:#12323A;}
	.st1{fill:#FFFFFF;}
</style>
<g>
	<g>
		<polygon class="st0" points="339.3,1708.5 339.3,2409.8 247.6,2339.2 247.6,1637.9 		"/>
		<polygon class="st0" points="208.7,1607.9 208.7,2309.2 117.2,2238.8 117.2,1537.5 		"/>
		<polygon class="st0" points="469.5,1758.5 469.5,2293.6 423.7,2328.9 378,2293.6 378,1758.5 		"/>
		<polygon class="st0" points="599.8,1644 599.8,2345.3 508.4,2415.8 508.4,1714.5 		"/>
		<polygon class="st0" points="730.2,1543.6 730.2,2244.9 638.8,2315.4 638.8,1614.1 		"/>
	</g>
	<g>
		<g>
			<path class="st0" d="M1258.7,1754.4c1.1,1,1.7,2.1,1.7,3.4c0,3.3-2.6,4.9-7.9,4.9c-1,0-2.5-0.2-4.5-0.5c-2-0.3-3.6-0.5-4.8-0.5
				c-7.7,0-15.5,7.5-23.3,22.6c-31.9,61.9-52.7,138.9-62.4,231.1c3.8-7,8.8-16.5,15-28.2c1.8-3.6,4-5.4,6.6-5.4c3.1,0,4.7,2,4.7,6.1
				c0,2-0.6,4.3-1.7,6.9c-7.2,17-13.8,41.5-19.9,73.4c-1.5,7-4.7,10.6-9.6,10.6c-5.6,0-14-4.3-25.3-12.8c-5.4-4.1-8.5-7.4-9.3-9.8
				c-1-2.3-0.9-7,0.2-14.2c5.9-35.5,13.5-75.5,22.8-120.1c10.8-50.9,18.7-80.9,23.6-90.1c-17.2,20.3-38.3,50.1-63.4,89.4
				c-24.6,38.6-46,75.4-64.3,110.2c3.3,10.2,4.9,17.8,4.9,22.8c0,6.4-5.4,14.6-16.2,24.6c-5.6,5.2-9.2,7.9-11.1,7.9
				c-1.8,0-6.6-6.5-14.5-19.6c-3.4-5.6-5.2-10-5.2-13.3c0-2.3,2.4-7.9,7.1-16.7c-10.5-39-29.5-86.4-57.2-142.4
				c-17.7,44.5-35.6,85.1-53.8,121.8c11.8,13.3,17.7,22.2,17.7,26.8c0,3.6-4.1,5.9-12.3,6.9c-17.2,2-31.6,10.8-43.2,26.5
				c-1,5.1-3.4,7.6-7.4,7.6c-5.6,0-14.2-5-25.8-15c-3.6-3.1-5.4-5.6-5.4-7.6c0-1.8,1.5-4,4.4-6.6c11-9.5,23.5-18.7,37.6-27.5
				c30.4-50.6,55.2-103.8,74.4-159.6c-20-43.9-44.8-74.5-74.4-91.8c-4.9-2.9-9.6-4.4-14-4.4c-6.2,0-12.8,3.2-19.6,9.6
				c-6.4,6.9-12.8,13.8-19.2,20.9c-3.6,4.1-7.3,6.1-11,6.1c-2.9,0-4.4-1.5-4.4-4.4c0-1.5,0.5-3.2,1.5-5.2
				c22.1-44.4,43.2-66.1,63.3-65.3c23.9,0.8,54.9,30.4,93.1,88.9c9.3-21.3,14-40.5,14-57.7c0-8.8,1.3-13.3,3.9-13.3
				c2.5,0,8.2,3.5,17.2,10.6c2.6,2.1,3.8,6.5,3.7,13.3c-0.3,8.5-7.9,33.3-22.8,74.4c28.8,56,50.7,107.1,65.6,153.2
				c57.8-95.9,109.8-170.8,155.9-224.7c5.7-13.1,12.8-26,21.1-38.8c3.6-5.6,7.9-8.3,13-8.3
				C1225.6,1730.8,1239.2,1738.7,1258.7,1754.4z"/>
			<path class="st0" d="M1285.9,1905.7c-3.9,22.1-14.2,58.9-30.7,110.2c4.7-4.3,11.3-12,19.6-23.3c1.1-1.5,2.3-2.2,3.4-2.2
				c2.6,0,2.9,2.3,1,6.9c-0.8,1.8-7.7,13-20.6,33.6c-9.8,15.7-17,29.6-21.6,41.7c-1.5,3.8-4.2,5.6-8.1,5.6c-3.9,0-9.3-1.9-16-5.6
				c-4.3-2.3-6.4-4-6.4-5.2c0-1,0.9-3.1,2.7-6.4c8.8-15.5,18.7-41.6,29.5-78.1c10.3-35.4,16.1-61.6,17.4-78.8c0.5-7.4-0.2-11-2.2-11
				c-1.5,0-4.1,1.8-7.9,5.4l-15.2,14.2c-5.4,4.9-8.1,5.2-8.1,0.7c0-1.3,0.7-2.9,2.2-4.9c7.7-10.8,15.9-21,24.6-30.7
				c2.6-2.8,5.2-4.2,7.6-4.2c2.6,0,6.5,1.8,11.5,5.4c7.5,2,11.7,3.2,12.5,3.7c3.8,2.3,5.6,6.5,5.6,12.8
				C1286.9,1898.5,1286.6,1901.9,1285.9,1905.7z M1320.6,1798.1c2.6,2,3.9,4.2,3.9,6.6c0,4.7-7,12.1-21.1,22.1
				c-9.3,6.4-18.3,8.7-27,6.9c-4.9-1-9.2-2.8-12.8-5.4c-1.1-1-2-2-2.6-3.1c-0.6-1.1-0.7-1.9-0.4-2.6c0.5-0.7,1.5-0.8,2.9-0.5
				c15.1-13.1,25-22.5,29.7-28.2c3.8-4.3,6.5-6.4,8.1-6.4C1304.3,1787.6,1310.7,1791.1,1320.6,1798.1z"/>
			<path class="st0" d="M1508.1,1691.5c2.1,1.6,3.2,3.4,3.2,5.2c0,3.1-1.9,4.7-5.6,4.7c-1.6,0-3.4-0.5-5.2-1.5
				c-7.5-3.8-13.2-5.6-16.9-5.6c-10.3,0-21.6,10-33.9,30c-44.5,72.5-76.2,166.2-95,281.2c-0.5,3.1-1.3,7.3-2.5,12.5
				c3.8-3.9,9.3-10.3,16.7-19.2c4.3-5.1,7.4-7.6,9.3-7.6c4.3,0,4.6,2.5,1,7.6c-15.7,22.4-26.1,45.9-31.2,70.5
				c-1.8,6.1-4.1,9.1-6.9,9.1c-1.3,0-3-0.7-5.2-2.2c-8.4-5.6-13.1-8.8-14.2-9.8c-3.3-3.3-4.9-7.5-4.9-12.8c0-2.6,0.4-5.8,1.2-9.6
				c19-104.3,43.5-193.1,73.4-266.4c22.6-55.3,42.8-91.2,60.6-107.6c4.9-4.6,9.8-6.8,14.7-6.6c4.4,0.2,10.1,2.9,17.2,8.3
				C1492.1,1678.2,1500.1,1684.8,1508.1,1691.5z"/>
			<path class="st0" d="M1603.7,1691.5c2.1,1.6,3.2,3.4,3.2,5.2c0,3.1-1.9,4.7-5.6,4.7c-1.6,0-3.4-0.5-5.2-1.5
				c-7.5-3.8-13.2-5.6-16.9-5.6c-10.3,0-21.6,10-33.9,30c-44.5,72.5-76.2,166.2-95,281.2c-0.5,3.1-1.3,7.3-2.5,12.5
				c3.8-3.9,9.3-10.3,16.7-19.2c4.3-5.1,7.4-7.6,9.3-7.6c4.3,0,4.6,2.5,1,7.6c-15.7,22.4-26.1,45.9-31.2,70.5
				c-1.8,6.1-4.1,9.1-6.9,9.1c-1.3,0-3-0.7-5.2-2.2c-8.3-5.6-13.1-8.8-14.2-9.8c-3.3-3.3-4.9-7.5-4.9-12.8c0-2.6,0.4-5.8,1.2-9.6
				c19-104.3,43.5-193.1,73.4-266.4c22.6-55.3,42.8-91.2,60.6-107.6c4.9-4.6,9.8-6.8,14.7-6.6c4.4,0.2,10.1,2.9,17.2,8.3
				C1587.6,1678.2,1595.6,1684.8,1603.7,1691.5z"/>
			<path class="st0" d="M1631.2,2002.7c-39.8,50.9-67.8,76.4-84,76.4c-7.7,0-17.4-5.3-29.2-16c-12.3-5.7-18.4-13.4-18.4-23.1
				c0-1.8,0.2-3.7,0.5-5.6c2.9-22.4,8.9-47.2,17.9-74.4c-6.1-3.1-9.1-6.1-9.1-8.8c0-2.3,1.7-3.4,5.2-3.4c2.6,0,5.3,0.7,8.1,2.2
				c14.6-32.7,27.7-56,39.3-69.7c7.5-9.2,14.3-13.8,20.4-13.8c2.8,0,9.7,2.4,20.6,7.1c-0.8-4.9,0.6-7.8,4.2-8.6c0.2,0,4,0,11.5,0
				c7,0,10.6,1.2,10.6,3.7c0,0.5-0.2,1.9-0.7,4.2c-0.5,2.3-0.7,4.4-0.7,6.4c0,5.9,0.1,13.2,0.2,21.9c0.2,8.7,0.2,14.5,0.2,17.4
				c0,20.3-5.6,34.5-16.7,42.5c-10.2,7.4-21.6,11-34.4,11c-6.7,0-17.8-1.8-33.4-5.4c-2.8,5.1-5.9,15-9.3,29.7
				c-4.6,18.7-6.7,35.2-6.4,49.6c0.2,8.5,2.9,12.8,8.1,12.8c2,0,4.5-0.5,7.6-1.5c19-6.7,45.4-27.2,79.3-61.4
				c2.1-2.1,4.3-3.2,6.4-3.2c3.1,0,4.7,1.5,4.7,4.4C1633.6,1998.8,1632.8,2000.7,1631.2,2002.7z M1602.4,1894.1
				c0-6.4-1.4-9.6-4.2-9.6c-1.8,0-4.4,1.3-7.9,3.9c-16,12.9-30.1,35.6-42.2,68c3.3,0.5,9,1,17.2,1.5c13.3,0.5,23.2-2.5,29.7-9.1
				c4.9-4.9,7.6-13,8.1-24.3C1602.7,1932.9,1602.4,1922.8,1602.4,1894.1z"/>
			<path class="st0" d="M1836.9,1985.2c-9.8,14.9-22.6,36.5-38.3,64.8c-2.9,7.4-5.8,14.7-8.6,22.1c-2.3,5.1-5.3,7.6-9.1,7.6
				c-2.9,0-7.3-1.2-13-3.7c-6.4-2.6-9.6-5.2-9.6-7.9c0-1.1,1.1-3.7,3.2-7.6c10.6-21.6,20.1-48.5,28.5-80.8
				c9-33.9,12.8-59.8,11.5-77.6c-0.3-7.2-2-10.8-4.9-10.8c-2.1,0-5.3,2-9.6,6.1c-41.3,40.3-76.9,94.1-107.1,161.6
				c-3.8,8.3-8.2,12.5-13.3,12.5c-3.6,0-9.6-2-17.9-6.1c-3.3-1.5-5-2.9-5.2-4.2c0-0.7,0.9-2.9,2.7-6.9c9.5-20.8,18.9-47.1,28.2-79.1
				c10-34.5,15.6-61.5,16.9-80.8c0.3-5.9,0.2-8.8-0.5-8.8c-0.2,0-2.5,2.2-6.9,6.6c-4.4,4.4-10.6,10.2-18.4,17.2
				c-1.5,1.5-3.1,2.2-4.9,2.2c-2.3,0-3.4-0.9-3.4-2.7c0-1.3,0.8-2.8,2.5-4.4c7-9,16.3-20.2,27.7-33.6c2.5-2.8,5-4.2,7.6-4.2
				c3.9,0,7.4,2.9,10.3,8.6c13.3,3.9,19.5,10,18.7,18.2c-1.8,18-11.1,50.5-27.7,97.5c11-21.1,26.9-44.7,47.9-70.8
				c21-26.1,36.5-41.5,46.7-46.3c5.1-2.3,8.7-3.4,10.8-3.4c2.1,0,5.6,1.8,10.3,5.4c13.6,4.7,20.3,12.6,20.1,23.6
				c0,11.5-2.8,29.9-8.3,55.2c-4.4,21-8.5,37.2-12.3,48.9c4.7-6.1,10.8-13.9,18.2-23.6c1.3-1.6,2.6-2.5,3.9-2.5
				c2.5,0,3.7,1.6,3.7,4.7C1837.4,1983.3,1837.3,1984.2,1836.9,1985.2z"/>
			<path class="st0" d="M2048.1,1985.2c-9.8,14.9-22.6,36.5-38.3,64.8c-2.9,7.4-5.8,14.7-8.6,22.1c-2.3,5.1-5.3,7.6-9.1,7.6
				c-2.9,0-7.3-1.2-13-3.7c-6.4-2.6-9.6-5.2-9.6-7.9c0-1.1,1.1-3.7,3.2-7.6c10.6-21.6,20.1-48.5,28.5-80.8
				c9-33.9,12.8-59.8,11.5-77.6c-0.3-7.2-2-10.8-4.9-10.8c-2.1,0-5.3,2-9.6,6.1c-41.3,40.3-76.9,94.1-107.1,161.6
				c-3.8,8.3-8.2,12.5-13.3,12.5c-3.6,0-9.6-2-17.9-6.1c-3.3-1.5-5-2.9-5.2-4.2c0-0.7,0.9-2.9,2.7-6.9c9.5-20.8,18.9-47.1,28.2-79.1
				c10-34.5,15.6-61.5,16.9-80.8c0.3-5.9,0.2-8.8-0.5-8.8c-0.2,0-2.5,2.2-6.9,6.6c-4.4,4.4-10.6,10.2-18.4,17.2
				c-1.5,1.5-3.1,2.2-4.9,2.2c-2.3,0-3.4-0.9-3.4-2.7c0-1.3,0.8-2.8,2.5-4.4c7-9,16.3-20.2,27.7-33.6c2.5-2.8,5-4.2,7.6-4.2
				c3.9,0,7.4,2.9,10.3,8.6c13.3,3.9,19.5,10,18.7,18.2c-1.8,18-11.1,50.5-27.7,97.5c11-21.1,26.9-44.7,47.9-70.8
				c21-26.1,36.5-41.5,46.7-46.3c5.1-2.3,8.7-3.4,10.8-3.4c2.1,0,5.6,1.8,10.3,5.4c13.6,4.7,20.3,12.6,20.1,23.6
				c0,11.5-2.8,29.9-8.3,55.2c-4.4,21-8.5,37.2-12.3,48.9c4.7-6.1,10.8-13.9,18.2-23.6c1.3-1.6,2.6-2.5,3.9-2.5
				c2.5,0,3.7,1.6,3.7,4.7C2048.6,1983.3,2048.4,1984.2,2048.1,1985.2z"/>
			<path class="st0" d="M2142.2,1905.7c-3.9,22.1-14.2,58.9-30.7,110.2c4.7-4.3,11.3-12,19.6-23.3c1.1-1.5,2.3-2.2,3.4-2.2
				c2.6,0,2.9,2.3,1,6.9c-0.8,1.8-7.7,13-20.6,33.6c-9.8,15.7-17,29.6-21.6,41.7c-1.5,3.8-4.2,5.6-8.1,5.6c-3.9,0-9.3-1.9-16-5.6
				c-4.3-2.3-6.4-4-6.4-5.2c0-1,0.9-3.1,2.7-6.4c8.8-15.5,18.7-41.6,29.5-78.1c10.3-35.4,16.1-61.6,17.4-78.8c0.5-7.4-0.2-11-2.2-11
				c-1.5,0-4.1,1.8-7.9,5.4l-15.2,14.2c-5.4,4.9-8.1,5.2-8.1,0.7c0-1.3,0.7-2.9,2.2-4.9c7.7-10.8,15.9-21,24.6-30.7
				c2.6-2.8,5.2-4.2,7.6-4.2c2.6,0,6.5,1.8,11.5,5.4c7.5,2,11.7,3.2,12.5,3.7c3.8,2.3,5.6,6.5,5.6,12.8
				C2143.1,1898.5,2142.8,1901.9,2142.2,1905.7z M2176.8,1798.1c2.6,2,3.9,4.2,3.9,6.6c0,4.7-7,12.1-21.1,22.1
				c-9.3,6.4-18.3,8.7-27,6.9c-4.9-1-9.2-2.8-12.8-5.4c-1.1-1-2-2-2.6-3.1c-0.6-1.1-0.7-1.9-0.4-2.6c0.5-0.7,1.5-0.8,2.9-0.5
				c15.1-13.1,25-22.5,29.7-28.2c3.8-4.3,6.5-6.4,8.1-6.4C2160.6,1787.6,2167,1791.1,2176.8,1798.1z"/>
			<path class="st0" d="M2339.6,1909.1c-15.1,41.7-25.5,76.8-31.2,105.1c2.5-2.3,5.7-5.8,9.7-10.6c4-4.7,6.5-7.5,7.5-8.4
				c2.3-2.9,4.7-4.4,7.4-4.4c2.5,0,3.7,1.2,3.7,3.7c0,1.5-0.7,3.2-2,5.2c-15.4,22.8-25.6,45.8-30.7,69c-1.5,6.5-3.7,9.8-6.6,9.8
				c-2.8,0-7.9-2.6-15.5-7.9c-4.4-2.9-7-5.4-7.6-7.4c-0.8-1.8-0.8-5.4,0-10.8c6.9-41.6,15.5-76.1,25.8-103.6
				c-14.2,23.1-33.6,48.6-58.2,76.6c-21.4,24.4-36.9,39.9-46.4,46.7c-6.9,4.7-12.1,7.1-15.7,7.1c-2.9,0-7.5-2.4-13.5-7.1
				c-8.7-5.2-13-12.4-13-21.6c0-1.8,0.2-3.8,0.5-6.1c2.9-24.2,13.6-52.4,31.9-84.6c18.3-32.2,39.4-59.3,63.1-81.4
				c7.7-7.2,14.6-10.7,20.6-10.6c5.9,0.3,17.1,8.1,33.6,23.3c1.5,1.3,2.2,2.7,2.2,4.2c0,2.6-1.7,3.9-5.2,3.9c-1.3,0-2.5-0.2-3.7-0.7
				c-11.6-4.9-21-4.7-28,0.5c-15.4,11.3-32.4,31.2-51.1,59.7c-21.6,32.7-34.6,62.2-39,88.4c-0.2,1.1-0.2,2.2-0.2,3.2
				c0,4.1,1.6,6.1,4.9,6.1c5.6,0,12.2-3.8,19.9-11.5c18.3-17.8,38-40.3,58.9-67.3c21.4-28,35.2-49.1,41.3-63.3
				c4.4-10.5,7.3-17.8,8.6-22.1c2.1-7.4,4.4-11.1,6.9-11.1c2.5,0,8.2,3.4,17.2,10.1c3.8,2.8,5.8,5.3,6.1,7.6
				C2342.1,1900.8,2341.4,1904.2,2339.6,1909.1z"/>
			<path class="st0" d="M2560.1,1691.5c2.1,1.6,3.2,3.4,3.2,5.2c0,3.1-1.9,4.7-5.6,4.7c-1.6,0-3.4-0.5-5.2-1.5
				c-7.5-3.8-13.2-5.6-16.9-5.6c-10.3,0-21.6,10-33.9,30c-44.5,72.5-76.2,166.2-95,281.2c-0.5,3.1-1.3,7.3-2.5,12.5
				c3.8-3.9,9.3-10.3,16.7-19.2c4.3-5.1,7.4-7.6,9.3-7.6c4.3,0,4.6,2.5,1,7.6c-15.7,22.4-26.1,45.9-31.2,70.5
				c-1.8,6.1-4.1,9.1-6.9,9.1c-1.3,0-3-0.7-5.2-2.2c-8.4-5.6-13.1-8.8-14.2-9.8c-3.3-3.3-4.9-7.5-4.9-12.8c0-2.6,0.4-5.8,1.2-9.6
				c19-104.3,43.5-193.1,73.4-266.4c22.6-55.3,42.8-91.2,60.6-107.6c4.9-4.6,9.8-6.8,14.7-6.6c4.4,0.2,10.1,2.9,17.2,8.3
				C2544,1678.2,2552.1,1684.8,2560.1,1691.5z"/>
			<path class="st0" d="M2799,1789.5c-7.9,31.9-16.9,56.6-27.3,73.9c-4.7,8.2-9.4,12.3-14,12.3c-1.8,0-4-0.4-6.6-1.2
				c-12.4-3.8-18.7-8.3-18.7-13.5c0-2.6,1.7-4.3,5.2-5.2c14.4-21.6,22.9-47.6,25.5-77.8c-9-8-17.5-12-25.5-12
				c-17-0.2-37.2,14.8-60.4,44.9c-21.4,28.2-40,61.6-55.7,100.2c-16.4,40.3-24.2,73.8-23.6,100.7c0.2,15.6,4.8,27.2,14,34.9
				c6.7,5.6,14.3,8.3,22.8,8.3c4.9,0,10.6-1,16.9-2.9c15.7-4.9,33.9-14.4,54.5-28.5c19.6-13.4,36-27.1,49.1-41
				c4.1-4.4,6.5-10.1,7.4-16.9c0.5-3.6,2.1-5.4,4.9-5.4c2.3,0,4,1.5,5.2,4.4c5.9,14.7,8.8,25,8.8,30.7c0,5.4-2.2,10.5-6.6,15.2
				c-2.9,2.9-9.9,8.6-20.9,16.9c-34.7,26-64.5,42.2-89.4,48.6c-7.7,2-14.7,2.9-21.1,2.9c-13.4,0-23.7-4.5-30.7-13.5
				c-31.9-11.9-47.9-30.2-47.9-54.8c0-39.6,10.4-82.2,31.2-127.7c17.8-39.4,39.9-74.2,66.1-104.1c25.2-28.6,45.7-43.5,61.4-44.7
				c5.7-0.5,12.4,1.9,19.9,7.1c1,0.7,8.6,6.8,22.8,18.4c0.8-6.5,3-9.8,6.6-9.8c3.9,0,10.6,3.6,19.9,10.8c5.9,4.6,8.8,9,8.8,13.3
				C2801.7,1776.8,2800.8,1782,2799,1789.5z"/>
			<path class="st0" d="M3000.1,1691.5c2.1,1.6,3.2,3.4,3.2,5.2c0,3.1-1.9,4.7-5.6,4.7c-1.6,0-3.4-0.5-5.2-1.5
				c-7.5-3.8-13.2-5.6-16.9-5.6c-10.3,0-21.6,10-33.9,30c-44.5,72.5-76.2,166.2-95,281.2c-0.5,3.1-1.3,7.3-2.5,12.5
				c3.8-3.9,9.3-10.3,16.7-19.2c4.3-5.1,7.4-7.6,9.3-7.6c4.3,0,4.6,2.5,1,7.6c-15.7,22.4-26.1,45.9-31.2,70.5
				c-1.8,6.1-4.1,9.1-6.9,9.1c-1.3,0-3-0.7-5.2-2.2c-8.4-5.6-13.1-8.8-14.2-9.8c-3.3-3.3-4.9-7.5-4.9-12.8c0-2.6,0.4-5.8,1.2-9.6
				c19-104.3,43.5-193.1,73.4-266.4c22.6-55.3,42.8-91.2,60.6-107.6c4.9-4.6,9.8-6.8,14.7-6.6c4.4,0.2,10.1,2.9,17.2,8.3
				C2984.1,1678.2,2992.1,1684.8,3000.1,1691.5z"/>
			<path class="st0" d="M3057.3,1917.2c-0.3,14.6-3.8,33.9-10.6,57.9c-10.6,38-25.7,67.4-45.2,88.4c-10.3,11.1-21.8,16.7-34.4,16.7
				c-4.9,0-11.2-1.1-18.9-3.2c-15.4-1-27.9-5.8-37.6-14.5c-10.5-9.5-15.4-21.7-14.7-36.6c0.7-17.4,6.6-41.6,17.9-72.7
				c12.4-33.9,25.4-58.3,38.8-73.2c6.4-7.2,11.6-10.8,15.7-10.8c5.6,0,14.6,5.7,27,17.2c3.4-1.6,10.5-4.7,21.1-9.1
				c5.4-1.8,9.5-2.7,12.3-2.7c6.4,0,13.5,6,21.4,17.9C3055.3,1900,3057.6,1908.2,3057.3,1917.2z M3029.1,1924.3
				c1.1-11,1.7-17.9,1.7-20.9c0-6.9-2.1-10.3-6.4-10.3c-1.6,0-3.8,0.3-6.4,1l-38.1,15.5c-4.4,1.8-7,2.7-7.6,2.7
				c-1.3,0-2.6-1.6-3.9-4.7c-9.5,11.6-18.3,28.4-26.5,50.3c-6.4,17.2-10.8,32.6-13.3,46.2c-1.8,9.2-2.7,17.5-2.7,25
				c0,25.2,7.8,37.5,23.3,36.8c6.2-0.2,12.9-2.6,20.1-7.4c13.8-9.3,26.6-28,38.6-56C3019.4,1976.3,3026.5,1950.2,3029.1,1924.3z"/>
			<path class="st0" d="M3213.7,1759.3c4.6,2.5,6.9,5.2,6.9,8.3c0,2.1-1.6,3.2-4.7,3.2c-0.7,0-1.7-0.1-3.1-0.4
				c-1.4-0.2-2.4-0.4-3.1-0.4c-6.2,0-13.8,6.8-22.6,20.4c-7.9,12.1-18.7,38.5-32.7,79.1c-1.3,3.6-1.8,5.7-1.5,6.4
				c0.5,1.1,2.6,1.8,6.4,2c9.7,0.8,22.6,0.5,38.8-1c5.6-0.5,8.3,1.9,8.3,7.1c0,3.6-2.1,5.8-6.4,6.6c-3.4,0.5-21.5,2-54.3,4.4
				c-19.6,57.5-31.6,106.1-35.8,145.9c-0.2,2.1-0.2,4-0.2,5.6c0,5.6,1.4,8.3,4.2,8.3c4.4,0,17.8-10.7,40-32.2
				c2.6-2.6,5.2-3.9,7.6-3.9c2.1,0,3.4,0.9,3.9,2.7c0.5,2-0.2,4.3-2.2,6.9c-13.3,17.5-26.3,32.4-39,44.7c-5.4,5.1-9.9,7.6-13.5,7.6
				c-3.6,0-9.2-2.9-16.7-8.6c-9.3-2.5-14-7.4-14-14.7c0-1.1,0.2-2.5,0.5-3.9c6.1-42.2,17.9-94.2,35.6-155.9
				c-8.7-1.1-16.5-2.3-23.6-3.4c-3.1-0.5-4.7-2.5-4.7-5.9c0-3.8,1.6-6.1,4.9-6.9c3.3-0.8,9.3-2.6,18.2-5.4
				c5.4-1.8,10.6-4.3,15.7-7.4c17.5-54.2,31.3-89.3,41.3-105.3c5.7-9.2,11.9-13.8,18.4-13.8
				C3192.7,1749.5,3201.8,1752.8,3213.7,1759.3z"/>
			<path class="st0" d="M3388.3,1691.5c2.1,1.6,3.2,3.4,3.2,5.4c0,2.9-1.9,4.4-5.6,4.4c-1.6,0-3.4-0.5-5.2-1.5
				c-7.5-3.8-13.2-5.6-16.9-5.6c-10,0-21.1,10-33.4,30c-43.2,70.4-75.2,162.6-96,276.5c26.7-51.2,57.2-92.2,91.6-122.8
				c7.4-6.5,12.8-9.8,16.2-9.8c1,0,5.1,2.3,12.3,6.9c8.7,3.6,13.6,5.9,14.7,6.9c4.3,3.8,6.4,10.3,6.4,19.6c0,2.6-0.2,5.5-0.5,8.6
				c-2.8,29.1-11.1,64.4-25,105.8c5.1-6.9,13.1-16.9,24.1-30.2c2.6-2.8,4.8-4.2,6.6-4.2c1.8,0,2.7,1.1,2.7,3.2
				c0,2.5-1.1,5.2-3.2,8.3c-9.5,13.7-22.1,33.9-37.8,60.4c-1.3,2.6-4.5,9.5-9.6,20.6c-2.1,5.2-5.1,7.9-8.8,7.9
				c-4.3,0-10.4-2.9-18.4-8.6c-3.3-2.3-3.8-5.9-1.7-10.8c28.2-70.7,43.1-123.5,44.7-158.4c0.5-10-0.9-15-4.2-15
				c-2.1,0-6.6,2.8-13.5,8.3c-12.6,10.2-28.1,28.2-46.4,54c-24.2,34.1-43,68.8-56.2,104.4c-3.6,10.2-7,15.2-10.1,15.2
				c-2.8,0-8.3-3.4-16.5-10.1c-4.1-3.4-5.5-9.2-4.2-17.2c19-103.9,43.7-192.8,74.2-266.4c22.6-54.8,43-90.7,61.1-107.6
				c4.6-4.3,9.1-6.4,13.5-6.4c4.6,0,10.4,2.6,17.4,7.9C3371.9,1678.1,3380.1,1684.8,3388.3,1691.5z"/>
			<path class="st0" d="M3471.8,1905.7c-3.9,22.1-14.2,58.9-30.7,110.2c4.7-4.3,11.3-12,19.6-23.3c1.1-1.5,2.3-2.2,3.4-2.2
				c2.6,0,2.9,2.3,1,6.9c-0.8,1.8-7.7,13-20.6,33.6c-9.8,15.7-17,29.6-21.6,41.7c-1.5,3.8-4.2,5.6-8.1,5.6c-3.9,0-9.3-1.9-16-5.6
				c-4.3-2.3-6.4-4-6.4-5.2c0-1,0.9-3.1,2.7-6.4c8.8-15.5,18.7-41.6,29.5-78.1c10.3-35.4,16.1-61.6,17.4-78.8c0.5-7.4-0.2-11-2.2-11
				c-1.5,0-4.1,1.8-7.9,5.4l-15.2,14.2c-5.4,4.9-8.1,5.2-8.1,0.7c0-1.3,0.7-2.9,2.2-4.9c7.7-10.8,15.9-21,24.6-30.7
				c2.6-2.8,5.2-4.2,7.6-4.2c2.6,0,6.5,1.8,11.5,5.4c7.5,2,11.7,3.2,12.5,3.7c3.8,2.3,5.6,6.5,5.6,12.8
				C3472.8,1898.5,3472.5,1901.9,3471.8,1905.7z M3506.4,1798.1c2.6,2,3.9,4.2,3.9,6.6c0,4.7-7,12.1-21.1,22.1
				c-9.3,6.4-18.3,8.7-27,6.9c-4.9-1-9.2-2.8-12.8-5.4c-1.1-1-2-2-2.6-3.1c-0.6-1.1-0.7-1.9-0.4-2.6c0.5-0.7,1.5-0.8,2.9-0.5
				c15.1-13.1,25-22.5,29.7-28.2c3.8-4.3,6.5-6.4,8.1-6.4C3490.2,1787.6,3496.6,1791.1,3506.4,1798.1z"/>
			<path class="st0" d="M3684.4,1985.2c-9.8,14.9-22.6,36.5-38.3,64.8c-2.9,7.4-5.8,14.7-8.6,22.1c-2.3,5.1-5.3,7.6-9.1,7.6
				c-2.9,0-7.3-1.2-13-3.7c-6.4-2.6-9.6-5.2-9.6-7.9c0-1.1,1.1-3.7,3.2-7.6c10.6-21.6,20.1-48.5,28.5-80.8
				c9-33.9,12.8-59.8,11.5-77.6c-0.3-7.2-2-10.8-4.9-10.8c-2.1,0-5.3,2-9.6,6.1c-41.3,40.3-76.9,94.1-107.1,161.6
				c-3.8,8.3-8.2,12.5-13.3,12.5c-3.6,0-9.6-2-17.9-6.1c-3.3-1.5-5-2.9-5.2-4.2c0-0.7,0.9-2.9,2.7-6.9c9.5-20.8,18.9-47.1,28.2-79.1
				c10-34.5,15.6-61.5,16.9-80.8c0.3-5.9,0.2-8.8-0.5-8.8c-0.2,0-2.5,2.2-6.9,6.6c-4.4,4.4-10.6,10.2-18.4,17.2
				c-1.5,1.5-3.1,2.2-4.9,2.2c-2.3,0-3.4-0.9-3.4-2.7c0-1.3,0.8-2.8,2.5-4.4c7-9,16.3-20.2,27.7-33.6c2.5-2.8,5-4.2,7.6-4.2
				c3.9,0,7.4,2.9,10.3,8.6c13.3,3.9,19.5,10,18.7,18.2c-1.8,18-11.1,50.5-27.7,97.5c11-21.1,26.9-44.7,47.9-70.8
				c21-26.1,36.5-41.5,46.7-46.3c5.1-2.3,8.7-3.4,10.8-3.4c2.1,0,5.6,1.8,10.3,5.4c13.6,4.7,20.3,12.6,20.1,23.6
				c0,11.5-2.8,29.9-8.3,55.2c-4.4,21-8.5,37.2-12.3,48.9c4.7-6.1,10.8-13.9,18.2-23.6c1.3-1.6,2.6-2.5,3.9-2.5
				c2.5,0,3.7,1.6,3.7,4.7C3684.9,1983.3,3684.8,1984.2,3684.4,1985.2z"/>
			<path class="st0" d="M3881.9,1899c-50.3,260.8-115.6,391.1-195.9,390.9c-29,0-60.3-16-94-47.9c-3.1-2.9-4.7-6-4.7-9.1
				c0-4.7,2.2-7.1,6.6-7.1c2.3,0,4.5,0.9,6.6,2.7c26.7,22.7,50.6,34.1,71.7,34.1c67.4,0,123.7-99,168.7-297.1
				c-27.3,47-51.2,80.6-71.5,100.9c-8.2,8.3-15.5,12.5-21.9,12.5c-5.9,0-13.2-3.3-21.9-9.8c-15.6-7.7-23-20.3-22.3-37.8
				c1-21.4,9.2-48,24.8-79.8c15.2-30.9,31.1-54.3,47.6-70c9.3-8.8,17.8-13.3,25.3-13.3c5.6,0,11.7,2.5,18.4,7.4
				c1,0.8,7.5,6.6,19.6,17.4c2.5,2.1,3.7,4.3,3.7,6.4c0,2.9-2,4.4-5.9,4.4c-2.5,0-5.2-0.7-8.3-2.2c-4.9-2.6-9.7-3.9-14.5-3.9
				c-6.9,0-13.1,2.5-18.7,7.4c-12,10.5-24.5,27.5-37.6,51.1c-14.2,25.9-23,49.4-26.3,70.7c-0.8,5.7-1.2,10.7-1.2,15
				c0,12.1,3.3,18.2,9.8,18.2c4.4,0,9.1-2.2,14-6.6c19.5-16.7,38.8-40.8,58-72.4c17.8-29.1,30.5-55.9,38.1-80.3
				c2.8-8.7,4.2-16.9,4.2-24.8c0-6.2,1.5-9.3,4.4-9.3c3.1,0,9.2,3.4,18.2,10.3C3882.4,1881,3884,1888.4,3881.9,1899z"/>
		</g>
		<g>
			<path class="st0" d="M2099.1,2163.3v110.9h-8.1v-110.9h-34.2v-7.6h76.5v7.6H2099.1z"/>
			<path class="st0" d="M2169.4,2197.6c-2.6-1.8-5.5-2.8-8.9-2.8c-6.7,0-12.3,3.4-16.8,10.3c-4.5,6.9-6.8,16.7-6.8,29.4v39.7h-7.4
				v-84.6h7.4v18.7h0.4c1.9-6.4,4.9-11.4,9.1-15c4.2-3.6,9.1-5.4,14.6-5.4c3.1,0,5.9,0.5,8.4,1.5V2197.6z"/>
			<path class="st0" d="M2183.8,2232.3c0,11.6,2.7,20.7,8,27.3c5.4,6.6,12.7,9.8,22.1,9.8c9.5,0,18.7-3.5,27.8-10.5v8.1
				c-8.8,6.2-18.5,9.3-29.3,9.3c-10.9,0-19.7-3.9-26.5-11.7c-6.7-7.8-10.1-18.9-10.1-33.1c0-12.3,3.5-22.7,10.6-31.2
				s16.2-12.7,27.4-12.7c10.5,0,18.6,3.7,24.2,11.1c5.6,7.4,8.5,17.5,8.5,30.2v3.4H2183.8z M2238.5,2225.4c-0.4-9.8-2.7-17.4-7-22.8
				c-4.3-5.4-10.3-8.1-18-8.1c-8,0-14.5,2.7-19.7,8c-5.2,5.3-8.4,12.9-9.6,22.9H2238.5z"/>
			<path class="st0" d="M2325,2274.2V2225c0-20.3-7.3-30.4-22-30.4c-8.2,0-14.9,3-20.1,8.9c-5.3,6-7.9,13.4-7.9,22.2v48.6h-7.6
				v-84.6h7.6v15.4h0.4c6.2-11.6,15.8-17.4,28.9-17.4c9.1,0,16.1,3,21,9.1c4.8,6.1,7.3,14.8,7.3,26v51.5H2325z"/>
			<path class="st0" d="M2418,2274.2v-15.4h-0.3c-2.8,5.4-6.8,9.6-12.2,12.7c-5.4,3.1-11.5,4.7-18.3,4.7c-10.4,0-18.9-3.8-25.5-11.4
				c-6.6-7.6-9.9-18.1-9.9-31.5c0-13.6,3.6-24.7,10.8-33.1c7.2-8.5,16.5-12.7,28-12.7c12.6,0,21.7,5.2,27.1,15.6h0.3V2149h7.6v125.2
				H2418z M2418,2222.8c0-7.9-2.5-14.5-7.5-20c-5-5.5-11.7-8.2-20.1-8.2c-8.9,0-16.2,3.4-22,10.2c-5.8,6.8-8.7,16.2-8.7,28
				c0,11.7,2.6,20.7,7.8,27c5.2,6.4,11.9,9.5,20.1,9.5c9.6,0,17.1-3,22.4-8.9c5.3-6,7.9-13.3,7.9-21.9V2222.8z"/>
			<path class="st0" d="M2603.5,2274.2v-84.1c0-2,0.3-7.9,0.9-17.4h-0.3c-1.7,4.4-3.2,7.9-4.3,10.3l-42.1,91.2h-2.7l-42.3-90.7
				c-1.4-2.9-2.7-6.6-3.9-11.2h-0.4c0.4,5.3,0.6,10.6,0.6,15.8v86.1h-8.2v-118.5h7.6l44.2,95.5c0.3,0.5,0.6,1.3,0.9,2.2
				c0.3,0.9,0.7,1.9,1.1,2.8c0.6,1.4,1.1,3,1.7,4.7h0.5l0.9-2.6c0.1-0.3,1-2.9,2.8-7.9l43.5-94.8h7.3v118.5H2603.5z"/>
			<path class="st0" d="M2641.9,2232.3c0,11.6,2.7,20.7,8,27.3c5.4,6.6,12.7,9.8,22.1,9.8c9.5,0,18.7-3.5,27.8-10.5v8.1
				c-8.8,6.2-18.5,9.3-29.3,9.3c-10.9,0-19.7-3.9-26.5-11.7c-6.7-7.8-10.1-18.9-10.1-33.1c0-12.3,3.5-22.7,10.6-31.2
				c7-8.5,16.2-12.7,27.4-12.7c10.5,0,18.6,3.7,24.2,11.1c5.6,7.4,8.5,17.5,8.5,30.2v3.4H2641.9z M2696.6,2225.4
				c-0.4-9.8-2.7-17.4-7-22.8c-4.3-5.4-10.3-8.1-18-8.1c-8,0-14.5,2.7-19.7,8c-5.2,5.3-8.4,12.9-9.6,22.9H2696.6z"/>
			<path class="st0" d="M2727.3,2232.3c0,11.6,2.7,20.7,8,27.3c5.4,6.6,12.7,9.8,22.1,9.8c9.5,0,18.7-3.5,27.8-10.5v8.1
				c-8.8,6.2-18.5,9.3-29.3,9.3c-10.9,0-19.7-3.9-26.5-11.7c-6.7-7.8-10.1-18.9-10.1-33.1c0-12.3,3.5-22.7,10.6-31.2
				s16.2-12.7,27.4-12.7c10.5,0,18.6,3.7,24.2,11.1c5.6,7.4,8.5,17.5,8.5,30.2v3.4H2727.3z M2782,2225.4c-0.4-9.8-2.7-17.4-7-22.8
				c-4.3-5.4-10.3-8.1-18-8.1c-8,0-14.5,2.7-19.7,8c-5.2,5.3-8.4,12.9-9.6,22.9H2782z"/>
			<path class="st0" d="M2844.4,2273.1c-4,1.9-7.7,2.8-11.2,2.8c-12.5,0-18.7-7.5-18.7-22.5v-56.8h-15.2v-7h15.2v-22
				c1.2-0.5,2.4-0.9,3.7-1.3c1.3-0.4,2.6-0.8,3.8-1.3v24.6h22.3v7h-22.3v55.8c0,5.8,0.9,10,2.8,12.7c1.8,2.6,5,3.9,9.4,3.9
				c3.1,0,6.5-1,10.2-3.1V2273.1z"/>
			<path class="st0" d="M2856.8,2270.5v-9.1c2.9,2.4,6.3,4.4,10.4,5.8c4.1,1.4,7.6,2.1,10.6,2.1c13.3,0,19.9-5.4,19.9-16.2
				c0-3.8-1.5-7-4.4-9.6c-2.9-2.6-7.6-5.4-14.2-8.2c-8.1-3.5-13.7-7.2-17-10.9c-3.3-3.8-4.9-8.4-4.9-13.8c0-6.9,2.6-12.4,7.9-16.7
				c5.3-4.2,11.8-6.3,19.5-6.3c7.2,0,13.5,1.5,18.7,4.4v8.6c-6.3-4.1-12.8-6.1-19.5-6.1c-5.6,0-10,1.4-13.5,4.3
				c-3.4,2.9-5.1,6.6-5.1,11.3c0,4,1.1,7.3,3.2,9.8c2.1,2.5,6.9,5.4,14.2,8.6c8.8,4,14.9,7.6,18.2,11c3.3,3.4,4.9,7.9,4.9,13.5
				c0,6.7-2.5,12.2-7.5,16.6c-5,4.4-12,6.6-20.8,6.6C2869.1,2276.3,2862.3,2274.4,2856.8,2270.5z"/>
			<path class="st0" d="M3007,2163.3v110.9h-8.1v-110.9h-34.2v-7.6h76.5v7.6H3007z"/>
			<path class="st0" d="M3063.5,2168.3c-1.7,0-3.1-0.6-4.4-1.8c-1.3-1.2-1.9-2.7-1.9-4.6c0-1.8,0.6-3.2,1.9-4.4
				c1.3-1.1,2.7-1.7,4.4-1.7c1.7,0,3.2,0.5,4.5,1.6c1.3,1.1,2,2.6,2,4.5c0,1.8-0.6,3.3-1.9,4.6
				C3066.7,2167.7,3065.2,2168.3,3063.5,2168.3z M3059.8,2274.2v-84.6h7.6v84.6H3059.8z"/>
			<path class="st0" d="M3200.6,2274.2v-50.9c0-10.7-1.7-18.1-5-22.4c-3.3-4.3-8.6-6.4-15.8-6.4c-6.7,0-12.4,2.9-17.3,8.6
				c-4.8,5.7-7.3,12.9-7.3,21.6v49.6h-7.6v-51.5c0-18.8-7.2-28.2-21.5-28.2c-6.9,0-12.6,2.9-17.2,8.6c-4.6,5.8-6.9,13.2-6.9,22.3
				v48.7h-7.6v-84.6h7.6v14.1h0.4c5.9-10.8,14.5-16.1,25.9-16.1c6.2,0,11.4,1.8,15.8,5.3c4.4,3.5,7.3,8.2,8.9,14
				c2.7-6.1,6.4-10.9,11.4-14.3c4.9-3.4,10.3-5.1,16-5.1c18.5,0,27.8,11.4,27.8,34.3v52.3H3200.6z"/>
			<path class="st0" d="M3235.4,2232.3c0,11.6,2.7,20.7,8,27.3c5.4,6.6,12.7,9.8,22.1,9.8c9.5,0,18.7-3.5,27.8-10.5v8.1
				c-8.8,6.2-18.5,9.3-29.3,9.3c-10.9,0-19.7-3.9-26.5-11.7c-6.7-7.8-10.1-18.9-10.1-33.1c0-12.3,3.5-22.7,10.6-31.2
				c7-8.5,16.2-12.7,27.4-12.7c10.5,0,18.6,3.7,24.2,11.1c5.6,7.4,8.5,17.5,8.5,30.2v3.4H3235.4z M3290.1,2225.4
				c-0.4-9.8-2.7-17.4-7-22.8c-4.3-5.4-10.3-8.1-18-8.1c-8,0-14.5,2.7-19.7,8c-5.2,5.3-8.4,12.9-9.6,22.9H3290.1z"/>
			<path class="st0" d="M3319,2274.2V2149h7.6v125.2H3319z"/>
			<path class="st0" d="M3355.6,2232.3c0,11.6,2.7,20.7,8,27.3c5.4,6.6,12.7,9.8,22.1,9.8c9.5,0,18.7-3.5,27.8-10.5v8.1
				c-8.8,6.2-18.5,9.3-29.3,9.3c-10.9,0-19.7-3.9-26.5-11.7c-6.7-7.8-10.1-18.9-10.1-33.1c0-12.3,3.5-22.7,10.6-31.2
				s16.2-12.7,27.4-12.7c10.5,0,18.6,3.7,24.2,11.1c5.6,7.4,8.5,17.5,8.5,30.2v3.4H3355.6z M3410.2,2225.4c-0.4-9.8-2.7-17.4-7-22.8
				c-4.3-5.4-10.3-8.1-18-8.1c-8,0-14.5,2.7-19.7,8c-5.2,5.3-8.4,12.9-9.6,22.9H3410.2z"/>
			<path class="st0" d="M3434.8,2270.5v-9.1c2.9,2.4,6.3,4.4,10.4,5.8c4.1,1.4,7.6,2.1,10.6,2.1c13.3,0,19.9-5.4,19.9-16.2
				c0-3.8-1.5-7-4.4-9.6c-2.9-2.6-7.6-5.4-14.2-8.2c-8.1-3.5-13.7-7.2-17-10.9c-3.3-3.8-4.9-8.4-4.9-13.8c0-6.9,2.6-12.4,7.9-16.7
				c5.3-4.2,11.8-6.3,19.5-6.3c7.2,0,13.5,1.5,18.7,4.4v8.6c-6.3-4.1-12.8-6.1-19.5-6.1c-5.6,0-10,1.4-13.5,4.3
				c-3.4,2.9-5.1,6.6-5.1,11.3c0,4,1.1,7.3,3.2,9.8c2.1,2.5,6.9,5.4,14.2,8.6c8.8,4,14.9,7.6,18.2,11c3.3,3.4,4.9,7.9,4.9,13.5
				c0,6.7-2.5,12.2-7.5,16.6c-5,4.4-12,6.6-20.8,6.6C3447.1,2276.3,3440.3,2274.4,3434.8,2270.5z"/>
			<path class="st0" d="M3500.5,2270.5v-9.1c2.9,2.4,6.3,4.4,10.4,5.8c4.1,1.4,7.6,2.1,10.6,2.1c13.3,0,19.9-5.4,19.9-16.2
				c0-3.8-1.5-7-4.4-9.6c-2.9-2.6-7.6-5.4-14.2-8.2c-8.1-3.5-13.7-7.2-17-10.9c-3.3-3.8-4.9-8.4-4.9-13.8c0-6.9,2.6-12.4,7.9-16.7
				c5.3-4.2,11.8-6.3,19.5-6.3c7.2,0,13.5,1.5,18.7,4.4v8.6c-6.3-4.1-12.8-6.1-19.5-6.1c-5.6,0-10,1.4-13.5,4.3
				c-3.4,2.9-5.1,6.6-5.1,11.3c0,4,1.1,7.3,3.2,9.8c2.1,2.5,6.9,5.4,14.2,8.6c8.8,4,14.9,7.6,18.2,11c3.3,3.4,4.9,7.9,4.9,13.5
				c0,6.7-2.5,12.2-7.5,16.6c-5,4.4-12,6.6-20.8,6.6C3512.8,2276.3,3506,2274.4,3500.5,2270.5z"/>
		</g>
	</g>
</g>
<rect x="523.8" y="105.1" class="st1" width="1809.2" height="800"/>
</svg>
